<svg id="visual" viewBox="0 0 1920 1080" width="1920" height="1080" xmlns="http://www.w3.org/2000/svg" xmlns:xlink="http://www.w3.org/1999/xlink" version="1.1"><rect x="0" y="0" width="1920" height="1080" fill="#08163a"></rect><defs><linearGradient id="grad1_0" x1="43.8%" y1="100%" x2="100%" y2="0%"><stop offset="14.444444444444446%" stop-color="#08163a" stop-opacity="1"></stop><stop offset="85.55555555555554%" stop-color="#08163a" stop-opacity="1"></stop></linearGradient></defs><defs><linearGradient id="grad2_0" x1="0%" y1="100%" x2="56.3%" y2="0%"><stop offset="14.444444444444446%" stop-color="#08163a" stop-opacity="1"></stop><stop offset="85.55555555555554%" stop-color="#08163a" stop-opacity="1"></stop></linearGradient></defs><g transform="translate(1920, 1080)"><path d="M-648 0C-639.1 -127.3 -630.2 -254.5 -561.2 -324C-492.2 -393.5 -363 -405.1 -259.5 -449.5C-156 -493.8 -78 -570.9 0 -648L0 0Z" fill="#818cf8"></path></g><g transform="translate(0, 0)"><path d="M648 0C562.1 72.9 476.3 145.8 433 250C389.7 354.2 389.1 489.6 324 561.2C258.9 632.7 129.5 640.4 0 648L0 0Z" fill="#818cf8"></path></g></svg>